PathFileType	4	(X/Y/Z)	c:/Users/goper/Files/vsCode/490R/osim_files/C03/C03_ROM.trc
DataRate	CameraRate	NumFrames	NumMarkers	Units                	OrigDataRate	OrigDataStartFrame	OrigNumFrames
250.00	250.00	8	36	mm	250.0	2740	3653
                Frame#	Time	LPSIS			LASIS			LTH1			LTH2			LTH3			LTH4			LLFE			LMFE			LSH1			LSH2			LSH3			LSH4			LLMAL			LMMAL			LCAL			LMTP5			LTOE			LMTP1			RPSIS			RASIS			RTH1			RTH2			RTH3			RTH4			RLFE			RMFE			RSH1			RSH2			RSH3			RSH4			RLMAL			RMMAL			RCAL			RMTP1			RTOE			RMTP5		
		X1	Y1	Z1	X2	Y2	Z2	X3	Y3	Z3	X4	Y4	Z4	X5	Y5	Z5	X6	Y6	Z6	X7	Y7	Z7	X8	Y8	Z8	X9	Y9	Z9	X10	Y10	Z10	X11	Y11	Z11	X12	Y12	Z12	X13	Y13	Z13	X14	Y14	Z14	X15	Y15	Z15	X16	Y16	Z16	X17	Y17	Z17	X18	Y18	Z18	X19	Y19	Z19	X20	Y20	Z20	X21	Y21	Z21	X22	Y22	Z22	X23	Y23	Z23	X24	Y24	Z24	X25	Y25	Z25	X26	Y26	Z26	X27	Y27	Z27	X28	Y28	Z28	X29	Y29	Z29	X30	Y30	Z30	X31	Y31	Z31	X32	Y32	Z32	X33	Y33	Z33	X34	Y34	Z34	X35	Y35	Z35	X36	Y36	Z36

2740	10.95600	-422.77838	1039.72791	381.77335	-275.09387	930.46613	353.68329	-322.02951	613.67310	256.15829	-297.61633	556.28699	253.43121	-250.05888	637.78558	248.10222	-235.02896	578.07111	247.07945	-254.89421	483.46683	245.45975	-239.50246	462.03165	354.47852	-352.62958	322.38297	226.93634	-357.68649	275.97116	224.70706	-293.56213	314.48065	212.77467	-306.54517	268.50421	211.68350	-352.56766	105.44573	218.00893	-323.30902	107.48958	295.51147	-420.44290	67.55569	261.66074	-231.96532	49.61987	167.36789	-191.53120	64.41618	215.03687	-207.59645	53.49929	258.02536	-424.60916	1034.00330	494.85480	-280.19385	942.33691	552.02399	-351.06442	589.03650	617.78204	-331.08710	529.98895	616.35944	-297.79681	611.24414	647.74878	-269.97159	556.17743	653.70947	-255.51161	481.18558	650.79132	-244.99934	481.93048	538.72540	-377.02896	316.89972	662.77435	-381.78806	269.98679	666.49323	-321.21738	303.60092	687.49475	-335.45950	262.67120	688.81256	-370.35739	105.25491	684.29016	-340.79938	102.38971	606.27698	-435.96014	65.49205	634.32068	-227.17390	41.13806	631.34045	-207.57516	64.94965	681.50366	-271.22488	36.77958	734.56769
2741	10.96000	-421.97299	1040.88318	381.66095	-273.81802	932.09528	353.64316	-322.05203	614.72205	255.68852	-298.73615	556.95459	253.62590	-250.51572	638.15729	248.22569	-235.89229	578.33179	247.25955	-256.20932	483.93860	245.54361	-241.05746	462.39722	354.67819	-353.49152	322.46921	226.98457	-358.09027	276.16928	224.71394	-294.56915	314.79895	212.85738	-307.29807	268.81259	211.77902	-352.66647	105.48187	217.97954	-323.41913	107.51871	295.46143	-420.44574	67.55160	261.63834	-231.97121	49.60419	167.37434	-191.53815	64.38580	215.05367	-207.60895	53.47084	258.04831	-423.71048	1035.05798	494.86548	-279.04999	943.99268	552.02625	-351.72662	589.91949	617.60211	-332.23611	530.81702	616.16357	-298.38461	611.86011	647.54480	-270.88992	556.59570	653.43329	-256.90121	481.56894	650.37793	-246.43864	482.32675	538.34149	-377.80478	316.95160	662.67236	-382.53067	270.01419	666.36792	-322.00531	303.84421	687.28192	-336.02353	262.89444	688.65424	-370.42419	105.32570	684.31689	-340.83160	102.41841	606.31427	-435.93253	65.51256	634.36163	-227.15054	41.13772	631.35760	-207.53947	64.91063	681.52325	-271.20474	36.76781	734.60327
2742	10.96400	-421.14554	1041.89343	381.61084	-272.59131	933.49152	353.52173	-323.15237	615.44849	256.02487	-299.49759	557.71460	253.60117	-250.86438	638.54510	248.29770	-236.72404	578.62311	247.42502	-257.55386	484.36011	245.74481	-242.41055	462.81802	354.85776	-354.36084	322.58005	227.04623	-359.11835	276.17957	224.69580	-295.43503	315.12088	212.90344	-308.06845	269.08087	211.79225	-352.74509	105.49715	217.96112	-323.55991	107.53305	295.39603	-420.42099	67.50091	261.58255	-231.95918	49.60882	167.35434	-191.55119	64.37727	215.04074	-207.62645	53.47128	258.02856	-422.77783	1036.18115	494.80057	-277.77963	945.66199	552.00482	-352.39905	590.88525	617.31262	-333.36682	531.56421	615.91290	-298.93326	612.39825	647.27289	-272.56641	556.87067	652.83008	-258.27753	482.00287	649.99414	-247.95657	482.60373	538.01239	-378.74753	316.94751	662.48822	-383.42709	269.96155	666.21106	-322.77536	304.12000	687.10193	-336.76749	263.06885	688.46246	-370.51428	105.40885	684.31067	-340.88766	102.45493	606.33398	-435.93698	65.52797	634.39191	-227.15683	41.15389	631.37036	-207.53246	64.89525	681.53418	-271.21173	36.76662	734.60217
2743	10.96800	-420.29016	1042.96692	381.51959	-271.32822	935.24872	353.45941	-323.22040	616.41089	255.73061	-300.39752	558.41156	253.69455	-251.29759	638.94067	248.41341	-237.48885	578.91895	247.58881	-258.92004	484.75983	245.93376	-243.97990	463.19525	355.03180	-355.45706	322.64481	227.11790	-359.95639	276.22473	224.75313	-296.36578	315.42224	212.98552	-308.85910	269.31229	211.84447	-352.84479	105.51296	217.93825	-323.75302	107.55448	295.35742	-420.43723	67.45669	261.55728	-231.99045	49.61231	167.34502	-191.56606	64.38377	215.04926	-207.66969	53.47498	258.04562	-421.99191	1037.17285	494.72186	-276.60703	947.19049	552.00275	-353.16318	591.84259	617.12360	-334.62265	532.41406	615.70380	-299.59106	612.96539	646.99152	-272.89322	557.38165	652.80438	-259.65674	482.39691	649.58148	-249.53291	482.93323	537.64716	-379.72598	316.95642	662.26318	-384.15665	270.07419	666.08765	-323.73297	304.38101	686.93353	-337.57751	263.28415	688.32098	-370.57892	105.47048	684.33276	-340.92551	102.49792	606.36407	-435.93231	65.55013	634.40259	-227.17241	41.15500	631.38904	-207.53215	64.86384	681.56305	-271.27289	36.74277	734.59418
2744	10.97200	-419.45599	1043.94897	381.51480	-269.96707	936.63721	353.23987	-323.78268	617.08612	255.97638	-301.40958	559.06396	253.81157	-251.76390	639.27112	248.53694	-238.34238	579.21448	247.74332	-260.19147	485.15289	246.10696	-245.46034	463.60239	355.17044	-356.27917	322.66074	227.19981	-360.47049	276.35349	224.83362	-297.27939	315.67865	213.04288	-309.60233	269.54337	211.91554	-352.91171	105.53615	217.92006	-323.84457	107.58044	295.30667	-420.44620	67.44878	261.51846	-232.00214	49.60765	167.34555	-191.57343	64.39754	215.04330	-207.67450	53.51546	258.04843	-421.07138	1038.17908	494.71521	-275.37085	948.69653	551.98035	-353.82944	592.70178	616.88544	-335.84003	533.25732	615.47180	-300.20844	613.49768	646.76501	-273.88342	557.72131	652.56274	-260.98758	482.81342	649.21643	-250.97238	483.24780	537.30499	-380.57504	317.03900	662.12982	-384.89194	270.16351	665.93988	-324.57706	304.61606	686.75787	-338.18729	263.51840	688.20630	-370.65668	105.52968	684.34064	-340.97391	102.53931	606.39874	-435.91068	65.57413	634.41174	-227.16032	41.18988	631.39142	-207.52814	64.87266	681.58264	-271.29404	36.76691	734.60150
2745	10.97600	-418.64478	1044.83484	381.36423	-268.75488	938.24573	353.25510	-324.92755	617.80414	256.39905	-302.32138	559.72400	253.86961	-252.18448	639.62152	248.61264	-239.09988	579.46564	247.94440	-261.03174	485.63660	245.91805	-246.81837	463.92175	355.30325	-357.29715	322.73016	227.28981	-361.11914	276.43643	224.78307	-298.17651	315.95648	213.13657	-310.34433	269.74490	211.92744	-352.35956	105.53367	218.39311	-323.93860	107.60197	295.25916	-419.80026	66.69359	260.77710	-231.99484	49.62992	167.32410	-191.57742	64.41517	215.02972	-207.63939	53.55446	258.03830	-420.19339	1039.15210	494.59332	-274.19485	950.14868	551.94543	-354.54135	593.59949	616.61609	-336.85358	534.05267	615.32227	-300.78842	614.03851	646.53528	-274.79330	558.11823	652.35114	-262.32803	483.17731	648.78369	-252.30171	483.59631	536.95459	-381.50412	317.10947	661.97479	-385.74246	270.21799	665.72577	-325.34323	304.85043	686.58942	-338.80017	263.74017	688.04602	-370.68491	105.59932	684.34387	-341.01477	102.59045	606.43329	-435.90411	65.59480	634.42914	-227.14101	41.19105	631.39111	-207.49097	64.85139	681.56989	-271.27747	36.76925	734.58954
2746	10.98000	-417.78510	1045.78223	381.33429	-267.50049	939.61163	353.17432	-325.46265	618.60028	256.40082	-303.23660	560.35236	253.88564	-252.58960	639.93896	248.72878	-239.97684	579.65094	248.09532	-262.32092	485.98682	246.03490	-248.24519	464.25604	355.53055	-358.23352	322.76584	227.33723	-361.91174	276.42838	224.87077	-299.13907	316.17297	213.23474	-311.12396	269.91003	212.00835	-352.74323	105.48326	218.08679	-323.99591	107.59928	295.24158	-419.91550	67.20251	261.38657	-231.96802	49.61341	167.33690	-191.55362	64.39349	215.03609	-207.62051	53.54057	258.04419	-419.30270	1040.09167	494.48676	-272.81995	951.63800	551.96265	-355.30124	594.49060	616.43445	-337.99103	534.83173	615.12622	-301.34229	614.53662	646.38147	-275.65295	558.42090	652.19299	-263.56866	483.52097	648.46057	-253.74583	483.83789	536.66321	-382.34949	317.10843	661.90985	-386.48312	270.28119	665.60211	-326.07800	305.11597	686.40363	-339.49750	263.89731	687.89685	-370.77759	105.56720	684.31628	-341.06256	102.61396	606.49298	-435.87131	65.62603	634.41949	-227.39484	40.97031	631.24542	-207.47639	64.83113	681.57245	-271.23169	36.74042	734.61029
2747	10.98400	-416.95966	1046.64404	381.29544	-266.26401	941.00928	352.98755	-325.48462	619.45239	256.07135	-304.25284	560.99249	253.98883	-252.99582	640.23883	248.85472	-240.80128	579.88080	248.24367	-263.68088	486.31097	246.25890	-249.51190	464.64929	355.70120	-359.12518	322.78842	227.40950	-362.76022	276.35254	225.01465	-299.97665	316.38474	213.28714	-311.82748	270.08505	212.09830	-352.81900	105.48761	218.09932	-324.06525	107.60056	295.21008	-419.99924	67.24829	261.38943	-231.97951	49.62168	167.33240	-191.55374	64.40518	215.02580	-207.61365	53.56110	258.00198	-418.46735	1040.92224	494.51468	-271.69241	952.94708	551.93134	-355.94574	595.34845	616.26801	-339.11398	535.53394	614.80939	-301.90314	615.05072	646.17828	-276.61288	558.79590	651.95551	-264.93698	483.86169	648.05328	-255.17311	484.12253	536.37823	-383.24539	317.14951	661.76007	-387.13376	270.34143	665.53961	-326.91040	305.37457	686.21606	-340.12747	264.09128	687.75690	-370.72424	105.67458	684.33124	-341.11090	102.63329	606.52484	-435.83542	65.65099	634.40802	-227.08249	41.20493	631.39203	-207.44501	64.81141	681.56769	-271.20190	36.73848	734.60278
